<?xml version="1.0" encoding="utf-8"?>
<!-- Generator: Adobe Illustrator 19.0.0, SVG Export Plug-In . SVG Version: 6.00 Build 0)  -->
<svg version="1.1" id="Layer_1" xmlns="http://www.w3.org/2000/svg" xmlns:xlink="http://www.w3.org/1999/xlink" x="0px" y="0px"
	 width="64px" height="64px" viewBox="0 0 64 64" enable-background="new 0 0 64 64" xml:space="preserve">
<path id="XMLID_1_" fill="#485A93" d="M54.9,1.6h-45c-4.6,0-8.3,3.7-8.3,8.3v45c0,4.6,3.7,8.3,8.3,8.3h22.2l0-22h-5.7
	c-0.7,0-1.3-0.6-1.4-1.3l0-7.1c0-0.7,0.6-1.4,1.4-1.4h5.7v-6.9c0-8,4.9-12.3,12-12.3h5.8c0.7,0,1.4,0.6,1.4,1.4v6
	c0,0.7-0.6,1.3-1.3,1.4l-3.6,0c-3.9,0-4.6,1.8-4.6,4.5v5.9h8.5c0.8,0,1.4,0.7,1.3,1.5L50.7,40c-0.1,0.7-0.7,1.2-1.3,1.2h-7.6l0,22
	h13.2c4.6,0,8.3-3.7,8.3-8.3v-45C63.2,5.3,59.5,1.6,54.9,1.6z"/>
</svg>
