<?xml version="1.0" encoding="utf-8"?>
<!-- Generator: Adobe Illustrator 19.0.0, SVG Export Plug-In . SVG Version: 6.00 Build 0)  -->
<svg version="1.1" id="Layer_1" xmlns="http://www.w3.org/2000/svg" xmlns:xlink="http://www.w3.org/1999/xlink" x="0px" y="0px"
	 width="64px" height="64px" viewBox="0 0 64 64" enable-background="new 0 0 64 64" xml:space="preserve">
<g>
	<g>
		<g>
			<path fill="#010101" d="M22.1,21.4l-0.7-2.5c-1.4,0.4-2.9,0.9-4.3,1.4l1,2.4C19.4,22.2,20.8,21.7,22.1,21.4z"/>
			<path fill="#010101" d="M14.3,24.5l-1.2-2.3c-1.3,0.7-2.6,1.5-3.8,2.4l1.5,2.1C11.9,25.9,13.1,25.2,14.3,24.5z"/>
			<path fill="#010101" d="M2.7,30.7l2,1.7c0.9-1.1,1.9-2.1,2.9-3l-1.7-1.9C4.7,28.5,3.6,29.6,2.7,30.7z"/>
			<path fill="#010101" d="M58.5,29.7l-1.9,1.7c0.9,1,1.8,2.1,2.6,3.3l2.1-1.5C60.5,32,59.5,30.8,58.5,29.7z"/>
			<path fill="#010101" d="M50.2,26c1.2,0.8,2.3,1.6,3.3,2.5l1.7-2c-1.1-1-2.3-1.9-3.6-2.7L50.2,26z"/>
			<path fill="#010101" d="M47.7,21.6c-1.3-0.7-2.7-1.3-4.1-1.8l-0.9,2.4c1.3,0.5,2.6,1,3.9,1.6L47.7,21.6z"/>
			<path fill="#010101" d="M24.4,23.3l1.8,0l1.5-2.2l2.8,0l-1.8,6.1v0.1c0,0.8,0.6,1.4,1.4,1.4h2.5l4-7.5l3.1,0.1
				c1.6,0,2.9-1.3,2.9-2.8c0-0.8-0.3-1.5-0.9-2c-0.6-0.5-1.3-0.8-2.1-0.8c0,0,0,0,0,0l-3.1,0.1l-4-7.4l-2.6,0
				c-0.8,0-1.4,0.6-1.4,1.4v0.1l1.8,6.1l-2.8,0l-1.4-2.2l-1.8,0c-0.7,0-1.3,0.6-1.3,1.3V22C23,22.7,23.6,23.3,24.4,23.3z M25.1,16
				L25.1,16l1.4,2.1l6.6-0.1l-2.2-7.6h0.5l4,7.5l4.3-0.1c0.3,0,0.5,0.1,0.7,0.3c0.2,0.1,0.2,0.3,0.2,0.5c0,0.4-0.4,0.8-0.9,0.8
				l-4.4-0.1l-4.1,7.5h-0.5l2.2-7.7l-6.6,0l-1.4,2.1C25.1,21.2,25.1,16,25.1,16z"/>
			<path fill="#010101" d="M36.2,33.3c-1.7-0.4-3.4-0.6-5.1-0.6c-10.8,0-20.1,7.4-22.5,18C8.2,52.3,8,54,8,55.6h2.6
				c0-1,0.1-2.1,0.3-3.1c1.5,0.4,3,1,3.4,1.4c0,0.2,0,0.3-0.1,0.5c-0.1,0.4-0.1,0.8-0.1,1.2h2.6c0-0.3,0.1-0.6,0.1-0.8
				c0-0.3,0.1-0.6,0.1-0.9c0.2-1.6-1.7-2.9-5.5-3.9c2.1-7.1,7.7-12.4,14.7-14.1c-0.4,0.7-0.7,1.7-0.8,2.8c-0.1,0.6-0.1,1.1-0.2,1.5
				c-0.3,1.8-0.6,3.7,1.9,4.8c1.4,0.6,2.4,0.7,3.1,0.8c0.4,0,0.7,0.1,1.1,0.2c0.1,0.4,0.1,1.4,0,1.9c0,0.5-0.1,1.1,0.1,1.5
				c0.2,0.9,0.8,3.7,3,6.2h3.9c-3.7-2.4-4.3-6.6-4.4-6.8l-0.1-0.4c0-0.1,0-0.2,0-0.3c0.1-1.3,0.2-3.9-1.7-4.4
				c-0.7-0.2-1.2-0.3-1.7-0.3c-0.7-0.1-1.3-0.1-2.4-0.6c-0.7-0.3-0.7-0.3-0.4-2.1c0.1-0.5,0.2-1,0.2-1.7c0.2-1.8,0.9-2.9,1.6-3.6
				c0.5,0,1-0.1,1.6-0.1c1.5,0,3.1,0.2,4.6,0.5c5.3,1.2,9.9,4.4,12.8,9.1c2,3.1,3,6.7,3.1,10.3c-0.2,0.1-0.5,0.3-0.8,0.4h3.4
				c0-4.2-1.2-8.4-3.5-12.1C47.3,38.3,42.2,34.7,36.2,33.3z"/>
		</g>
	</g>
</g>
</svg>
