<?xml version="1.0" encoding="utf-8"?>
<!-- Generator: Adobe Illustrator 19.0.0, SVG Export Plug-In . SVG Version: 6.00 Build 0)  -->
<svg version="1.1" id="Layer_1" xmlns="http://www.w3.org/2000/svg" xmlns:xlink="http://www.w3.org/1999/xlink" x="0px" y="0px"
	 width="64px" height="64px" viewBox="0 0 64 64" enable-background="new 0 0 64 64" xml:space="preserve">
<g id="XMLID_4_">
	<path id="XMLID_2_" fill="#F04C3A" d="M23.6,35.1h9.5c-1.7,4.7-6.2,8.1-11.5,8c-6.4,0-11.7-5.2-12-11.6c-0.3-6.9,5.2-12.5,12-12.5
		c3.1,0,6,1.2,8.1,3.1c0.5,0.5,1.3,0.5,1.8,0l3.5-3.3c0.5-0.5,0.5-1.4,0-1.9c-3.4-3.2-8-5.2-13-5.3C11.4,11.5,2.3,20.3,2.2,31
		c-0.1,10.8,8.7,19.6,19.4,19.6c10.4,0,18.8-8.1,19.4-18.3c0-0.1,0-4.5,0-4.5H23.6c-0.7,0-1.3,0.6-1.3,1.3v4.8
		C22.3,34.5,22.8,35.1,23.6,35.1z"/>
	<path id="XMLID_1_" fill="#F04C3A" d="M57.2,28.2v-4.7c0-0.6-0.5-1.1-1.1-1.1h-3.9c-0.6,0-1.1,0.5-1.1,1.1v4.7h-4.7
		c-0.6,0-1.1,0.5-1.1,1.1v3.9c0,0.6,0.5,1.1,1.1,1.1H51v4.7c0,0.6,0.5,1.1,1.1,1.1h3.9c0.6,0,1.1-0.5,1.1-1.1v-4.7h4.7
		c0.6,0,1.1-0.5,1.1-1.1v-3.9c0-0.6-0.5-1.1-1.1-1.1L57.2,28.2L57.2,28.2z"/>
</g>
</svg>
