<?xml version="1.0" encoding="utf-8"?>
<!-- Generator: Adobe Illustrator 19.0.0, SVG Export Plug-In . SVG Version: 6.00 Build 0)  -->
<svg version="1.1" id="Layer_1" xmlns="http://www.w3.org/2000/svg" xmlns:xlink="http://www.w3.org/1999/xlink" x="0px" y="0px"
	 width="64px" height="64px" viewBox="0 0 64 64" enable-background="new 0 0 64 64" xml:space="preserve">
<g id="XMLID_7_">
	
		<linearGradient id="XMLID_8_" gradientUnits="userSpaceOnUse" x1="32.517" y1="-428.6687" x2="32.517" y2="-486.0158" gradientTransform="matrix(1 0 0 1 0 490)">
		<stop  offset="0" style="stop-color:#E19C3E"/>
		<stop  offset="0.3" style="stop-color:#C74D4E"/>
		<stop  offset="0.6" style="stop-color:#C31C76"/>
		<stop  offset="1" style="stop-color:#6A479C"/>
	</linearGradient>
	<path id="XMLID_12_" fill="url(#XMLID_8_)" d="M44.2,3.5H20.8c-9.5,0-17.3,7.7-17.3,17.3v23.4c0,9.5,7.7,17.3,17.3,17.3h23.4
		c9.5,0,17.3-7.7,17.3-17.3V20.8C61.5,11.3,53.8,3.5,44.2,3.5z M55.7,44.2c0,6.3-5.1,11.4-11.4,11.4H20.8c-6.3,0-11.4-5.1-11.4-11.4
		V20.8c0-6.3,5.1-11.4,11.4-11.4h23.4c6.3,0,11.4,5.1,11.4,11.4L55.7,44.2L55.7,44.2z"/>
	
		<linearGradient id="XMLID_10_" gradientUnits="userSpaceOnUse" x1="32.517" y1="-428.6687" x2="32.517" y2="-486.0158" gradientTransform="matrix(1 0 0 1 0 490)">
		<stop  offset="0" style="stop-color:#E19C3E"/>
		<stop  offset="0.3" style="stop-color:#C74D4E"/>
		<stop  offset="0.6" style="stop-color:#C31C76"/>
		<stop  offset="1" style="stop-color:#6A479C"/>
	</linearGradient>
	<path id="XMLID_9_" fill="url(#XMLID_10_)" d="M32.5,17.5c-8.3,0-15,6.7-15,15s6.7,15,15,15s15-6.7,15-15S40.8,17.5,32.5,17.5z
		 M32.5,41.7c-5.1,0-9.2-4.1-9.2-9.2s4.1-9.2,9.2-9.2c5.1,0,9.2,4.1,9.2,9.2C41.7,37.6,37.6,41.7,32.5,41.7z"/>
	
		<linearGradient id="XMLID_11_" gradientUnits="userSpaceOnUse" x1="47.5381" y1="-428.6687" x2="47.5381" y2="-486.0158" gradientTransform="matrix(1 0 0 1 0 490)">
		<stop  offset="0" style="stop-color:#E19C3E"/>
		<stop  offset="0.3" style="stop-color:#C74D4E"/>
		<stop  offset="0.6" style="stop-color:#C31C76"/>
		<stop  offset="1" style="stop-color:#6A479C"/>
	</linearGradient>
	<circle id="XMLID_1_" fill="url(#XMLID_11_)" cx="47.5" cy="17.6" r="3.6"/>
</g>
</svg>
