<?xml version="1.0" encoding="utf-8"?>
<!-- Generator: Adobe Illustrator 19.0.0, SVG Export Plug-In . SVG Version: 6.00 Build 0)  -->
<svg version="1.1" id="Layer_1" xmlns="http://www.w3.org/2000/svg" xmlns:xlink="http://www.w3.org/1999/xlink" x="0px" y="0px"
	 width="64px" height="64px" viewBox="0 0 64 64" enable-background="new 0 0 64 64" xml:space="preserve">
<g>
	<g>
		<path d="M48.2,2H12c-0.6,0-1,0.4-1,1v58c0,0.6,0.4,1,1,1h36.2c2.7,0,4.8-2.2,4.8-4.8V6.8C53,4.2,50.8,2,48.2,2z M51,57.2
			c0,1.5-1.3,2.8-2.8,2.8H13V4h35.2C49.7,4,51,5.3,51,6.8V57.2z"/>
		<path d="M44.4,13.4c0,0-0.1-0.1-0.1-0.1c-2.9-3.1-7-5.1-11.6-5.3l0,0L32,8l-0.7,0l0,0c-4.5,0.2-8.6,2.2-11.6,5.3
			c0,0-0.1,0.1-0.1,0.1c0,0,0,0,0,0c-2.8,3-4.6,7.1-4.6,11.6c0,4.3,1.6,8.2,4.2,11.2c0,0,0,0,0,0c0,0.1,0.1,0.1,0.2,0.1
			c3,3.3,7.1,5.4,11.8,5.6l0,0l0.7,0l0.7,0l0,0c4.7-0.2,8.9-2.3,11.9-5.6c0,0,0.1-0.1,0.1-0.1c0,0,0,0,0,0c2.6-3,4.2-6.9,4.2-11.2
			C49,20.5,47.3,16.5,44.4,13.4C44.4,13.4,44.4,13.4,44.4,13.4z M28.7,10.4c-1.4,1.5-2.6,3.2-3.5,5c-1.1-0.4-2.2-0.9-3.2-1.5
			C23.9,12.2,26.2,10.9,28.7,10.4z M20.6,15.3c1.2,0.8,2.5,1.4,3.9,1.9c-0.8,2.1-1.3,4.4-1.4,6.8h-6C17.3,20.7,18.6,17.7,20.6,15.3z
			 M20.3,34.3c-1.9-2.3-3-5.2-3.2-8.3h6c0.1,2.2,0.5,4.3,1.2,6.3C22.9,32.8,21.5,33.5,20.3,34.3z M21.7,35.8
			c1.1-0.7,2.2-1.2,3.4-1.7c0.9,2,2.2,3.8,3.7,5.5C26,39,23.6,37.7,21.7,35.8z M31,39.1c-1.7-1.6-3-3.5-4-5.6c1.3-0.3,2.7-0.6,4-0.6
			V39.1z M31,30.9c-1.6,0.1-3.3,0.3-4.8,0.8c-0.7-1.8-1-3.7-1.1-5.7h6V30.9z M31,24h-6c0.1-2.1,0.6-4.2,1.3-6.2
			c1.5,0.4,3.1,0.6,4.6,0.7V24z M31,16.5c-1.3-0.1-2.6-0.3-3.8-0.6c1-1.9,2.2-3.6,3.8-5.1V16.5z M42,13.8c-1,0.6-2.1,1.1-3.2,1.5
			c-0.9-1.8-2.1-3.5-3.5-5C37.8,10.9,40.1,12.2,42,13.8z M33,10.9c1.5,1.5,2.8,3.2,3.8,5.1c-1.2,0.3-2.5,0.5-3.8,0.6V10.9z M33,18.5
			c1.6-0.1,3.1-0.3,4.6-0.7c0.8,2,1.2,4,1.3,6.2h-6V18.5z M33,26h6c-0.1,2-0.5,3.9-1.1,5.7c-1.6-0.4-3.2-0.7-4.8-0.8V26z M33,32.9
			c1.4,0.1,2.7,0.3,4,0.6c-1,2.1-2.4,3.9-4,5.6C33,39.1,33,32.9,33,32.9z M35.3,39.6c1.5-1.6,2.8-3.5,3.7-5.5c1.2,0.4,2.3,1,3.4,1.7
			C40.4,37.7,38,39,35.3,39.6z M43.7,34.3c-1.3-0.8-2.6-1.5-4-2c0.7-2,1.1-4.1,1.2-6.3h6C46.7,29.1,45.6,32,43.7,34.3z M41,24
			c-0.1-2.4-0.6-4.6-1.4-6.8c1.3-0.5,2.6-1.1,3.9-1.9c2,2.4,3.3,5.4,3.5,8.7H41z"/>
		<path d="M47,47H17c-0.6,0-1,0.4-1,1s0.4,1,1,1h30c0.6,0,1-0.4,1-1S47.6,47,47,47z"/>
		<path d="M47,52H17c-0.6,0-1,0.4-1,1s0.4,1,1,1h30c0.6,0,1-0.4,1-1S47.6,52,47,52z"/>
	</g>
</g>
</svg>
