<?xml version="1.0" encoding="utf-8"?>
<!-- Generator: Adobe Illustrator 19.0.0, SVG Export Plug-In . SVG Version: 6.00 Build 0)  -->
<svg version="1.1" id="Layer_1" xmlns="http://www.w3.org/2000/svg" xmlns:xlink="http://www.w3.org/1999/xlink" x="0px" y="0px"
	 width="64px" height="64px" viewBox="0 0 64 64" enable-background="new 0 0 64 64" xml:space="preserve">
<g>
	<g>
		<path fill="#010101" d="M61.3,26.6c-0.8-5.9-5.3-10.6-11-11.8c0,0,0,0,0-0.1C49,5.4,40.4-1.1,31.1,0.2c-7.1,1-12.9,6.4-14.3,13.4
			c-0.9-0.1-1.8,0-2.8,0.1C6.4,14.8,1,21.9,2.1,29.5c1,7,7,12.1,13.9,12.1c0.6,0,1.3,0,2-0.1c1-0.1,2-0.4,3-0.7
			c2.6,2.6,6.2,4.1,9.9,4.1c0.7,0,1.3,0,2-0.1c3-0.4,5.8-1.8,7.9-4c2.6,1.5,5.7,2,8.7,1.6C57,41.3,62.4,34.2,61.3,26.6z M49.1,39.9
			c-2.8,0.4-5.6-0.2-7.9-1.8c-0.5-0.3-1.2-0.2-1.6,0.2c-1.8,2.1-4.3,3.5-7.1,3.9c-3.9,0.5-7.7-0.9-10.3-3.8C22,38.1,21.6,38,21.3,38
			c-0.2,0-0.3,0-0.5,0.1c-1,0.4-2,0.7-3.1,0.9c-0.5,0.1-1.1,0.1-1.6,0.1c-5.6,0-10.6-4.2-11.4-9.9c-0.9-6.3,3.5-12.1,9.8-13
			c1.1-0.2,2.2-0.2,3.3,0c0.3,0,0.7,0,0.9-0.2c0.3-0.2,0.4-0.5,0.5-0.8c0.9-6.4,6-11.5,12.4-12.5C39.5,1.6,46.9,7.1,48,15.1
			c0,0.3,0.1,0.6,0.1,0.9c0,0.6,0.5,1.1,1.1,1.1c5.1,0.7,9.1,4.7,9.8,9.8C59.7,33.2,55.3,39,49.1,39.9z"/>
	</g>
</g>
<g>
	<g>
		<path fill="#010101" d="M44.1,34.2L44.1,34.2c-0.7-0.4-1.4-0.1-1.8,0.4c-0.3,0.5-0.3,1.3,0.4,1.7c0.2,0.1,0.5,0.2,0.7,0.2
			c0.4,0,0.8-0.2,1-0.6C44.8,35.5,44.7,34.7,44.1,34.2z"/>
	</g>
</g>
<g>
	<g>
		<path fill="#010101" d="M56.4,27.3c-0.6-4-3.7-7.1-7.7-7.7c-0.7-0.1-1.3,0.4-1.4,1.1s0.4,1.3,1.1,1.4c2.9,0.4,5.2,2.7,5.6,5.5
			c0.5,3.6-2,6.9-5.5,7.4c-0.7,0.1-1.2,0.7-1.1,1.4c0.1,0.6,0.6,1.1,1.2,1.1c0.1,0,0.1,0,0.2,0c2.4-0.3,4.5-1.6,5.9-3.5
			C56.1,32,56.7,29.7,56.4,27.3z"/>
	</g>
</g>
<g>
	<g>
		<path fill="#010101" d="M17.3,18.7c-0.8-0.1-1.7-0.1-2.6,0C9.8,19.4,6.3,24,7,28.9c0.5,3.5,3,6.4,6.5,7.4c0.1,0,0.2,0,0.3,0
			c0.5,0,1-0.4,1.2-0.9c0.2-0.7-0.2-1.4-0.9-1.5c-2.5-0.7-4.3-2.8-4.7-5.4c-0.5-3.6,2-6.9,5.5-7.4c0.6-0.1,1.2-0.1,1.9,0
			s1.3-0.4,1.4-1.1C18.4,19.5,17.9,18.8,17.3,18.7z"/>
	</g>
</g>
<g>
	<g>
		<path fill="#010101" d="M20.3,34.4c-0.3-0.6-1-0.9-1.7-0.6l0,0c-0.6,0.3-0.9,1-0.6,1.7c0.2,0.5,0.7,0.7,1.1,0.7
			c0.2,0,0.3,0,0.5-0.1C20.3,35.7,20.6,35,20.3,34.4z"/>
	</g>
</g>
<g>
	<g>
		<path fill="#010101" d="M37.5,35c-0.5-0.5-1.3-0.4-1.8,0.1c-1,1.2-2.5,2-4,2.2c-0.3,0-0.6,0.1-0.9,0.1c-1.9,0-3.6-0.8-4.9-2.2
			c-0.5-0.5-1.2-0.6-1.8-0.1c-0.5,0.5-0.6,1.2-0.1,1.8c1.7,2,4.2,3.1,6.8,3.1c0.4,0,0.8,0,1.3-0.1c2.2-0.3,4.1-1.4,5.6-3
			C38.1,36.2,38,35.4,37.5,35z"/>
	</g>
</g>
<g>
	<g>
		<path fill="#010101" d="M35.1,50.4c-0.1-0.3-0.4-0.6-0.8-0.7c-0.3-0.1-0.7-0.1-1,0.1c-1,0.7-6.3,4.1-7.1,6.8
			c-0.9,3.1,0.8,6.3,3.9,7.2c0.6,0.2,1.1,0.2,1.7,0.2c2.5,0,4.8-1.6,5.6-4.1C38.1,57.2,35.6,51.5,35.1,50.4z M34.9,59.2
			c-0.5,1.7-2.4,2.7-4.1,2.2s-2.7-2.4-2.2-4.1c0.3-1.1,2.7-3.1,4.8-4.6C34.4,55.1,35.3,58.1,34.9,59.2z"/>
	</g>
</g>
<g>
	<g>
		<path fill="#010101" d="M49.8,46.6c-0.1-0.3-0.4-0.6-0.8-0.7c-0.3-0.1-0.7-0.1-1,0.1c-1,0.7-6.3,4.1-7.1,6.8
			c-0.9,3.1,0.8,6.3,3.9,7.2c0.6,0.2,1.1,0.2,1.7,0.2c2.5,0,4.8-1.6,5.6-4.1C52.8,53.5,50.3,47.7,49.8,46.6z M49.6,55.5
			c-0.5,1.7-2.4,2.7-4.1,2.2s-2.7-2.4-2.2-4.1c0.3-1.1,2.7-3.1,4.8-4.6C49,51.4,49.9,54.4,49.6,55.5z"/>
	</g>
</g>
<g>
	<g>
		<path fill="#010101" d="M20.4,46.6c-0.1-0.3-0.4-0.6-0.8-0.7c-0.3-0.1-0.7-0.1-1,0.1c-1,0.7-6.3,4.1-7.1,6.8
			c-0.9,3.1,0.8,6.3,3.9,7.2c0.6,0.2,1.1,0.3,1.7,0.3c0.9,0,1.9-0.2,2.7-0.7c1.4-0.7,2.4-2,2.8-3.4C23.5,53.5,21,47.7,20.4,46.6z
			 M20.2,55.5c-0.3,0.8-0.8,1.5-1.6,2c-0.8,0.4-1.7,0.5-2.5,0.3c-1.7-0.5-2.7-2.4-2.2-4.1c0.3-1.1,2.7-3.1,4.8-4.6
			C19.7,51.4,20.6,54.4,20.2,55.5z"/>
	</g>
</g>
</svg>
