<?xml version="1.0" encoding="utf-8"?>
<!-- Generator: Adobe Illustrator 19.0.0, SVG Export Plug-In . SVG Version: 6.00 Build 0)  -->
<svg version="1.1" id="Layer_1" xmlns="http://www.w3.org/2000/svg" xmlns:xlink="http://www.w3.org/1999/xlink" x="0px" y="0px"
	 width="64px" height="64px" viewBox="0 0 64 64" enable-background="new 0 0 64 64" xml:space="preserve">
<path id="XMLID_2_" fill="#7AA7D9" d="M62.1,12.6c-1.3,0.6-2.6,1-4,1.3c1.5-1.4,2.6-3.2,3.3-5.2l0,0c0.2-0.6-0.4-1.1-1-0.8l0,0
	c-1.9,1.1-4,2-6.1,2.5c-0.1,0-0.3,0-0.4,0c-0.4,0-0.8-0.1-1.1-0.4c-2.3-2-5.2-3.1-8.3-3.1c-1.3,0-2.6,0.2-4,0.6
	c-4,1.3-7.2,4.6-8.1,8.7c-0.4,1.5-0.5,3.1-0.3,4.6c0,0.2-0.1,0.3-0.1,0.3c-0.1,0.1-0.2,0.2-0.3,0.2c0,0,0,0,0,0
	c-8.9-0.8-16.8-5.1-22.5-12l0,0C9,9.1,8.4,9.1,8.2,9.5l0,0c-1.1,1.9-1.7,4.1-1.7,6.3c0,3.4,1.4,6.6,3.7,8.9c-1-0.2-2-0.6-2.8-1.1
	l0,0c-0.4-0.2-1,0.1-1,0.6l0,0c-0.1,5,2.9,9.5,7.3,11.5c-0.1,0-0.2,0-0.3,0c-0.7,0-1.4-0.1-2.1-0.2l0,0c-0.5-0.1-0.9,0.4-0.7,0.8
	l0,0c1.4,4.5,5.3,7.8,9.9,8.5c-3.8,2.6-8.3,3.9-12.9,3.9l-1.4,0c-0.4,0-0.8,0.3-0.9,0.7c-0.1,0.4,0.1,0.9,0.5,1.1
	c5.2,3,11.2,4.6,17.2,4.6c5.3,0,10.2-1,14.7-3.1c4.1-1.9,7.7-4.6,10.8-8.1c2.8-3.2,5-6.9,6.6-11c1.5-3.9,2.2-8.1,2.2-12.1v-0.2
	c0-0.6,0.3-1.2,0.8-1.7c1.9-1.6,3.6-3.4,5-5.4l0,0C63.2,13,62.7,12.4,62.1,12.6L62.1,12.6z"/>
</svg>
