<?xml version="1.0" encoding="utf-8"?>
<!-- Generator: Adobe Illustrator 19.0.0, SVG Export Plug-In . SVG Version: 6.00 Build 0)  -->
<svg version="1.1" id="Layer_1" xmlns="http://www.w3.org/2000/svg" xmlns:xlink="http://www.w3.org/1999/xlink" x="0px" y="0px"
	 width="64px" height="64px" viewBox="0 0 64 64" enable-background="new 0 0 64 64" xml:space="preserve">
<g>
	<g>
		<path fill="#010101" d="M56.7,2.3H7.2c-2.7,0-4.9,2.2-4.9,4.9v37.6v2c0,2.7,2.2,4.9,4.9,4.9H26v4h-4.9c-2.7,0-4.9,2.2-4.9,4.9
			c0,0.5,0.4,1,1,1h29.7c0.5,0,1-0.4,1-1c0-2.7-2.2-4.9-4.9-4.9h-4.9v-4h18.8c2.7,0,4.9-2.2,4.9-4.9v-2V7.2
			C61.7,4.5,59.5,2.3,56.7,2.3z M42.9,57.7c1.3,0,2.4,0.8,2.8,2H18.3c0.4-1.2,1.5-2,2.8-2H27h9.9H42.9z M28,55.7v-4h7.9v4H28z
			 M59.7,46.8c0,1.6-1.3,3-3,3H36.9H27H7.2c-1.6,0-3-1.3-3-3v-1h55.4L59.7,46.8L59.7,46.8z M59.7,43.9H4.3V7.3c0-1.6,1.3-3,3-3h49.5
			c1.6,0,3,1.3,3,3L59.7,43.9L59.7,43.9z"/>
	</g>
</g>
<g>
	<g>
		<path fill="#010101" d="M44.9,17.2h-2c-1.1,0-2,0.9-2,2v1H30v-2c0-1.1-0.9-2-2-2h-4v-3c0-1.1-0.9-2-2-2h-2c-1.1,0-2,0.9-2,2V28
			c0,0.5,0.4,1,1,1h4c0.5,0,1-0.4,1-1v-2h16.8v2c0,0.5,0.4,1,1,1h4c0.5,0,1-0.4,1-1v-8.9C46.8,18,46,17.2,44.9,17.2z M24.1,18.2h4v2
			h-4V18.2z M44.9,27.1h-2v-2c0-0.5-0.4-1-1-1H23.1c-0.5,0-1,0.4-1,1v2h-2V13.3h2v4v4c0,0.5,0.4,1,1,1H29h12.9c0.5,0,1-0.4,1-1v-2h2
			L44.9,27.1L44.9,27.1z"/>
	</g>
</g>
<g>
	<g>
		<path fill="#010101" d="M36.9,31H27c-1.6,0-3,1.3-3,3v2c0,1.6,1.3,3,3,3h9.9c1.6,0,3-1.3,3-3v-2C39.9,32.3,38.6,31,36.9,31z
			 M37.9,36c0,0.5-0.4,1-1,1H27c-0.5,0-1-0.4-1-1v-2c0-0.5,0.4-1,1-1h9.9c0.5,0,1,0.4,1,1V36z"/>
	</g>
</g>
<g>
	<g>
		<path fill="#010101" d="M49.2,36.9l2.3-2.3c0.3-0.3,0.3-0.6,0.3-1c-0.1-0.3-0.4-0.6-0.7-0.7l-7.9-2c-0.3-0.1-0.7,0-0.9,0.3
			c-0.2,0.2-0.3,0.6-0.3,0.9l2,7.9c0.1,0.3,0.4,0.6,0.7,0.7c0.1,0,0.2,0,0.3,0c0.3,0,0.5-0.1,0.7-0.3l2.3-2.3l4.2,4.2l1.4-1.4
			L49.2,36.9z M45.4,38l-1.2-4.6l4.6,1.2L45.4,38z"/>
	</g>
</g>
<g>
	<g>
		<rect x="31" y="14.2" fill="#010101" width="2" height="2"/>
	</g>
</g>
<g>
	<g>
		<path fill="#010101" d="M32,10.2c-1.7,0-3,0.7-3.6,1.2l1.2,1.6c0.4-0.3,1.2-0.8,2.4-0.8c0.5,0,1.5,0.1,2.4,0.8l1.2-1.6
			C34.2,10.4,32.7,10.2,32,10.2z"/>
	</g>
</g>
<g>
	<g>
		<path fill="#010101" d="M32,6.3c-2.9,0-4.9,1.6-5.6,2.3l1.4,1.4c0.5-0.5,2-1.7,4.3-1.7c0.7,0,2.6,0.2,4.3,1.7l1.4-1.4
			C35.5,6.5,33,6.3,32,6.3z"/>
	</g>
</g>
<g>
	<g>
		<rect x="51.8" y="21.1" fill="#010101" width="2" height="2"/>
	</g>
</g>
<g>
	<g>
		<rect x="51.8" y="15.2" fill="#010101" width="2" height="4"/>
	</g>
</g>
<g>
	<g>
		<rect x="51.8" y="8.3" fill="#010101" width="2" height="4.9"/>
	</g>
</g>
<g>
	<g>
		<rect x="10.2" y="21.1" fill="#010101" width="2" height="2"/>
	</g>
</g>
<g>
	<g>
		<rect x="10.2" y="15.2" fill="#010101" width="2" height="4"/>
	</g>
</g>
<g>
	<g>
		<rect x="10.2" y="8.3" fill="#010101" width="2" height="4.9"/>
	</g>
</g>
</svg>
